<svg width="19" height="20" viewBox="0 0 19 20" fill="none" xmlns="http://www.w3.org/2000/svg">
<path d="M18.6308 7.41243C18.5731 7.24262 18.467 7.09341 18.3255 6.98322C18.184 6.87303 18.0133 6.80669 17.8346 6.79238L12.6054 6.37688L10.3426 1.36786C10.2706 1.20653 10.1533 1.0695 10.0051 0.97332C9.8569 0.877135 9.68401 0.825903 9.50732 0.825806C9.33063 0.825709 9.15768 0.876751 9.00935 0.972773C8.86103 1.0688 8.74366 1.20569 8.67142 1.36694L6.4086 6.37688L1.17945 6.79238C1.00376 6.8063 0.8358 6.87054 0.695662 6.97742C0.555524 7.08429 0.449144 7.22928 0.389249 7.39503C0.329354 7.56079 0.318479 7.74028 0.357927 7.91205C0.397375 8.08383 0.485474 8.24059 0.611685 8.36361L4.47599 12.1307L3.10931 18.0487C3.06782 18.2278 3.08112 18.4153 3.14749 18.5868C3.21386 18.7583 3.33024 18.9058 3.48153 19.0103C3.63282 19.1149 3.81202 19.1715 3.9959 19.1729C4.17977 19.1743 4.35982 19.1204 4.51268 19.0182L9.50702 15.6886L14.5014 19.0182C14.6576 19.1219 14.8419 19.1753 15.0294 19.1712C15.2168 19.1671 15.3986 19.1057 15.5501 18.9952C15.7017 18.8847 15.8157 18.7305 15.877 18.5532C15.9383 18.376 15.9438 18.1842 15.8928 18.0037L14.2152 12.1334L18.3758 8.38929C18.6482 8.14347 18.7482 7.76007 18.6308 7.41243Z" fill="#F3CD03"/>
</svg>
